<?xml version="1.0" encoding="utf-8"?>
<!-- Generator: Adobe Illustrator 28.0.0, SVG Export Plug-In . SVG Version: 6.00 Build 0)  -->
<svg version="1.1" id="Layer_1" xmlns="http://www.w3.org/2000/svg" xmlns:xlink="http://www.w3.org/1999/xlink" x="0px" y="0px"
	 width="30px" height="30px" viewBox="0 0 30 30" style="enable-background:new 0 0 30 30;" xml:space="preserve">
<style type="text/css">
	.st0{fill:#FFFFFF;}
</style>
<path class="st0" d="M3,7C2.4,7,2,7.4,2,8c0,0.6,0.4,1,1,1c0,0,0,0,0,0h24c0.6,0,1-0.4,1-1c0-0.6-0.4-1-1-1c0,0,0,0,0,0H3z M3,14
	c-0.6,0-1,0.4-1,1c0,0.6,0.4,1,1,1c0,0,0,0,0,0h24c0.6,0,1-0.4,1-1c0-0.6-0.4-1-1-1c0,0,0,0,0,0H3z M3,21c-0.6,0-1,0.4-1,1
	c0,0.6,0.4,1,1,1c0,0,0,0,0,0h24c0.6,0,1-0.4,1-1s-0.4-1-1-1c0,0,0,0,0,0H3z"/>
</svg>
